HIERARCHY
ROOT Hips
{
  OFFSET -32.5998 29.0326 120.673
  CHANNELS 6 Xposition Yposition Zposition Zrotation Xrotation Yrotation
  JOINT LeftUpLeg
  {
    OFFSET 8.64259 1.95398 -2.38835
    CHANNELS 3 Zrotation Xrotation Yrotation
    JOINT LeftLeg
    {
      OFFSET 43.7702 0 0
      CHANNELS 3 Zrotation Xrotation Yrotation
      JOINT LeftFoot
      {
        OFFSET 40.6238 0 0
        CHANNELS 3 Zrotation Xrotation Yrotation
        JOINT LeftToeBase
        {
          OFFSET 12.7242 0 0
          CHANNELS 3 Zrotation Xrotation Yrotation
          End Site
          {
            OFFSET 0 0 0
          }
        }
      }
    }
  }
  JOINT RightUpLeg
  {
    OFFSET -8.2249 1.95398 -2.59336
    CHANNELS 3 Zrotation Xrotation Yrotation
    JOINT RightLeg
    {
      OFFSET 43.5653 0 0
      CHANNELS 3 Zrotation Xrotation Yrotation
      JOINT RightFoot
      {
        OFFSET 40.6238 0 0
        CHANNELS 3 Zrotation Xrotation Yrotation
        JOINT RightToeBase
        {
          OFFSET 12.7242 0 0
          CHANNELS 3 Zrotation Xrotation Yrotation
          End Site
          {
            OFFSET 0 0 0
          }
        }
      }
    }
  }
  JOINT Spine
  {
    OFFSET 0.165834 0.87714 6.61349
    CHANNELS 3 Zrotation Xrotation Yrotation
    JOINT Spine1
    {
      OFFSET 7.38963 1.71661e-005 0
      CHANNELS 3 Zrotation Xrotation Yrotation
      JOINT Spine2
      {
        OFFSET 11.9445 1.14441e-005 0
        CHANNELS 3 Zrotation Xrotation Yrotation
        JOINT Spine3
        {
          OFFSET 14.7254 4.19617e-005 0
          CHANNELS 3 Zrotation Xrotation Yrotation
          JOINT Spine4
          {
            OFFSET 10.9679 0 0
            CHANNELS 3 Zrotation Xrotation Yrotation
            JOINT RightShoulder
            {
              OFFSET 2.46616 -1.6653 3.69651
              CHANNELS 3 Zrotation Xrotation Yrotation
              JOINT RightArm
              {
                OFFSET 13.0012 0 0
                CHANNELS 3 Zrotation Xrotation Yrotation
                JOINT RightForeArm
                {
                  OFFSET 28.7848 1.62311e-005 0
                  CHANNELS 3 Zrotation Xrotation Yrotation
                  JOINT RightHand
                  {
                    OFFSET 26.5688 1.62095e-005 0
                    CHANNELS 3 Zrotation Xrotation Yrotation
                    End Site
                    {
                      OFFSET 0 0 0
                    }
                  }
                }
              }
            }
            JOINT LeftShoulder
            {
              OFFSET 2.38034 -1.29275 -3.7523
              CHANNELS 3 Zrotation Xrotation Yrotation
              JOINT LeftArm
              {
                OFFSET 16.3182 6.07031e-005 0
                CHANNELS 3 Zrotation Xrotation Yrotation
                JOINT LeftForeArm
                {
                  OFFSET 27.0901 0 0
                  CHANNELS 3 Zrotation Xrotation Yrotation
                  JOINT LeftHand
                  {
                    OFFSET 24.5451 1.51738e-005 0
                    CHANNELS 3 Zrotation Xrotation Yrotation
                    End Site
                    {
                      OFFSET 0 0 0
                    }
                  }
                }
              }
            }
            JOINT Neck
            {
              OFFSET 5.0226 -0.0266342 0
              CHANNELS 3 Zrotation Xrotation Yrotation
              JOINT Head
              {
                OFFSET 6.69364 2.86102e-005 0
                CHANNELS 3 Zrotation Xrotation Yrotation
                End Site
                {
                  OFFSET 0 0 0
                }
              }
            }
          }
        }
      }
    }
  }
}
MOTION
Frames:	18
Frame Time:	0.0416667
40.6673 95.5092 -164.633 -27.1607 -87.5251 -28.438 -178.304 33.9746 93.8306 -32.2357 16.6718 0.933347 66.7185 3.30516 -1.42558 20.855 -5.30326 3.948 174.918 -14.0208 92.9863 -49.9288 -22.7058 -3.94541 64.2229 -2.24319 -2.02913 21.2972 0.676665 8.60101 1.39268 7.58212 -89.5675 11.7074 2.97308 0.551 0.0398336 2.99444 0.419499 -22.5177 2.66995 1.41963 -2.50505 2.66996 1.41964 92.4892 -21.6447 -104.742 38.3003 -10.3965 -3.38031 -31.3505 18.1362 -108.519 -3.8847 -0.0559704 -3.86213 -86.6051 -41.593 82.3718 -26.1805 34.3075 27.3879 47.927 -32.2068 -101.999 -6.07631 0.0436544 -8.47484 22.7006 -9.23234 -11.5617 -14.9668 -5.43166 4.09406 
41.7565 94.3405 -152.919 -82.2896 -86.725 -85.2814 -176.563 30.174 91.6478 -43.1909 11.7989 0.877416 69.7287 5.16542 0.950167 26.748 -0.0176565 -1.91444 171.436 -2.70195 88.4929 -68.0453 -9.68052 -3.05719 68.7664 -4.52714 -2.82628 20.5256 0.26056 10.8447 0.760842 7.58057 -89.4628 11.7061 1.76542 0.885672 0.0360615 1.80271 0.807095 -22.5034 1.41764 1.37535 -2.49077 1.41764 1.37534 92.7081 -25.2203 -102.919 43.355 -20.6181 7.26481 -44.6141 14.0201 -90.6008 -0.662617 -0.0277865 -4.41193 -87.5898 -47.2078 81.8388 -22.003 28.5175 11.2823 43.0615 -25.8268 -100.566 -4.93638 -0.0284375 -7.14344 18.554 -5.42037 -13.8371 -11.4443 -1.50645 6.05832 
41.6403 94.1981 -142.312 -114.496 -84.4159 -121.345 -173.18 19.2399 88.6818 -43.5504 10.6645 -0.959879 79.0811 11.5674 -0.377969 26.0152 -1.54627 0.867555 171.012 9.9611 85.0113 -79.6664 0.381595 -3.41761 74.8476 -8.66454 -6.15017 17.1805 2.77812 7.07383 -0.039959 7.93541 -89.1458 10.9975 0.316231 1.66809 -0.674432 0.389332 1.65255 -23.2012 -0.199648 1.68602 -3.18858 -0.199643 1.68602 93.4519 -25.6056 -101.178 47.7572 -14.4898 18.6449 -49.6877 7.63141 -84.5567 3.68978 -0.143372 -8.24879 -88.3829 -50.8598 81.3027 -11.0848 23.3637 -13.1396 43.542 -23.9432 -99.9146 -6.55019 -0.072849 -4.79672 20.4055 -1.3111 -10.854 -11.2675 1.92965 3.69424 
41.2269 94.8193 -131.443 -107.909 -80.7939 -113.044 -171.288 9.06027 92.0518 -40.6788 10.7738 -1.21979 80.6305 13.6056 2.3212 33.9241 1.70895 1.23649 173.485 21.9757 91.3759 -79.0259 0.22996 -2.72648 76.3394 -9.70632 -5.82742 16.398 2.73915 8.05016 -0.532486 7.82306 -89.3523 11.2331 -0.758223 1.36728 -0.438382 -0.697312 1.39931 -22.9714 -1.13408 1.07624 -2.95878 -1.13408 1.07623 94.8673 -23.6142 -98.6782 49.1841 -7.04603 28.1461 -42.4532 4.58408 -82.0471 1.42052 -0.0726888 -7.47079 -87.4977 -45.5424 81.6797 -8.49721 14.1855 -26.5023 42.0606 -22.7415 -102.499 -5.77512 -0.0897588 -4.35663 18.0608 3.64174 -7.3304 -11.2404 5.56834 2.30155 
40.104 97.0623 -119.558 -107.616 -76.1 -112.519 -169.724 -2.3934 90.6275 -34.0487 10.9992 -2.10388 68.9504 5.60959 2.98632 50.8112 8.24151 0.147406 175.319 25.9893 94.5283 -64.4064 0.748621 -1.34119 75.637 -8.74302 -4.64246 16.3752 2.76993 7.98362 -0.997511 7.73816 -89.5199 11.4061 -1.76068 1.13326 -0.264275 -1.70911 1.20965 -22.8077 -2.01985 0.551562 -2.795 -2.01985 0.551565 95.4577 -21.0571 -98.0768 47.3532 -5.39279 35.257 -42.695 4.24243 -81.2914 1.28773 -0.105702 -9.93223 -85.4064 -38.9483 83.9141 -8.75331 5.9542 -25.6534 37.4633 -23.1366 -109.917 -4.61949 -0.0748559 -5.36523 15.8161 9.58884 -0.452031 -12.1512 9.49034 -0.509133 
38.2012 99.1703 -107.137 -107.852 -72.4946 -112.781 -170.113 -8.57928 92.7068 -33.1301 15.9647 -1.28339 53.4537 -5.68154 -1.98316 49.4274 8.9042 -5.70784 176.934 22.7712 97.0505 -40.6525 -0.606398 0.686754 69.1319 -5.17382 -2.66752 19.4672 1.60802 7.88154 -1.17298 7.65086 -89.6104 11.5827 -2.15091 0.998485 -0.0869152 -2.10489 1.0922 -22.6359 -2.35151 0.305574 -2.62322 -2.35151 0.305567 95.0056 -18.95 -99.8361 46.7312 -4.7681 42.2784 -39.8285 5.15109 -81.218 0.263359 -0.0643594 -9.8657 -83.9521 -31.8041 85.2975 -9.24526 3.42227 -22.1996 37.6053 -25.0446 -113.829 -7.35953 0.0400675 -7.36781 13.6002 13.2729 3.98273 -13.1287 12.1824 -2.79697 
36.3353 99.159 -95.1818 -107.677 -71.5303 -113.441 -170.981 -8.08375 93.0025 -43.0153 27.9013 0.58551 53.4265 -5.40541 -2.08556 30.3658 0.493411 0.590175 178.55 17.9803 98.1235 -19.5814 -8.73593 1.12276 60.8587 -0.800293 0.28811 21.4247 0.869668 7.84579 -1.10428 7.46589 -89.5694 11.9528 -1.99266 1.0735 0.282868 -1.9435 1.16017 -22.2638 -2.22314 0.424756 -2.25114 -2.22314 0.42476 94.9364 -16.361 -100.941 50.4366 -5.15352 48.656 -36.7474 7.32643 -81.7145 0.0124737 -0.0495188 -9.51262 -82.9421 -29.1872 86.8183 -5.29107 6.36952 -21.9256 36.4628 -26.5468 -115.618 -8.37273 0.132243 -8.57162 8.78036 13.717 5.37086 -10.3824 12.5358 -3.67982 
34.32 97.5821 -84.0507 -114.624 -72.3387 -122.683 -170.945 -4.12814 94.1874 -55.1314 23.4493 1.72849 58.271 -2.64433 -1.46339 36.7184 3.29094 -0.456941 179.537 16.0293 97.0169 -17.6898 -17.9007 -0.268078 57.9787 1.26095 0.00466555 19.7799 1.60856 7.46148 -1.00079 7.44411 -89.2237 11.9989 -1.62327 1.72733 0.327754 -1.5457 1.79707 -22.2108 -2.06734 1.15959 -2.19818 -2.06733 1.15959 94.7733 -16.3319 -101.377 55.5246 -6.45862 52.1053 -36.1934 9.32596 -82.4675 -1.23679 -0.00167951 -9.76982 -83.8071 -31.4626 85.5249 -4.06846 6.01291 -17.0193 35.573 -28.0796 -118.507 -7.16834 0.0242649 -7.12518 5.99541 12.098 3.25458 -8.76283 11.4493 -3.4513 
32.3537 94.7841 -73.285 -126.6 -72.1653 -135.699 -170.74 2.27907 96.6429 -66.6662 12.2286 2.86561 64.0783 0.713065 1.98278 33.2583 3.12929 -3.80593 177.75 17.0083 97.2895 -35.4411 -22.7706 -0.336562 65.7864 -3.18955 -5.24248 4.1992 7.26458 8.9591 -0.76218 7.65639 -89.0532 11.5647 -1.07303 1.99833 -0.107432 -0.98405 2.04359 -22.6375 -1.62393 1.58359 -2.62488 -1.62392 1.58359 94.0349 -18.8938 -102.206 55.1349 -6.34296 50.6925 -40.0402 10.101 -84.3838 -2.33362 0.0544444 -10.3885 -84.9883 -36.9421 84.301 -3.92616 7.21547 -8.29654 35.5292 -29.4214 -120.268 -6.75422 0.080066 -8.90364 4.97546 9.93727 2.56543 -6.92013 9.45815 -4.50344 
30.1244 91.9805 -64.9858 -126.449 -72.8183 -131.992 -173.215 16.5181 101.525 -74.5296 6.0162 4.7456 71.9642 6.21978 5.29041 24.8821 0.835915 -5.52542 178.015 18.6813 103.295 -48.5157 -19.112 0.340163 73.1996 -9.75986 -9.35326 2.53164 7.97321 8.86433 -0.294541 7.88172 -89.6208 11.1112 -0.410208 0.794526 -0.559872 -0.374835 0.811807 -23.0942 -0.630034 0.634517 -3.08156 -0.630025 0.634517 95.4136 -21.5804 -98.0279 51.5341 -12.2962 37.3512 -41.4753 11.2036 -86.4579 -1.4518 0.00248171 -9.2176 -84.3161 -43.8327 86.4929 -7.78665 8.49391 -1.88979 36.9586 -27.5912 -116.313 -5.79804 -0.0404516 -6.04356 11.0995 8.28942 2.45263 -8.59408 7.72833 -4.3799 
27.76 91.2062 -55.9532 -124.16 -71.3247 -129.785 -177.561 24.0469 100.185 -70.9199 4.00962 5.61864 76.7446 8.99183 4.77096 20.2123 -1.28723 -4.62824 178.862 12.6776 103.896 -51.9486 -19.888 -0.474014 78.7478 -14.7885 -9.90648 7.18369 6.19147 8.57668 0.0607204 8.05041 -89.7728 10.7725 0.225643 0.430231 -0.898496 0.24436 0.419874 -23.4334 0.085894 0.478164 -3.42073 0.0859025 0.478158 95.4655 -22.5519 -97.6262 43.8286 -16.5044 19.7875 -47.7839 13.7707 -90.5518 -0.0224108 -0.0422882 -6.61899 -84.9329 -50.524 86.408 -14.2396 5.40432 15.158 38.2583 -26.9059 -115.717 -8.09451 0.126831 -8.81115 13.4759 6.71085 3.2418 -9.02428 5.94136 -4.66886 
24.8907 92.0312 -46.2829 -121.738 -69.0101 -129.627 179.808 24.6398 96.1034 -57.421 8.97221 5.78997 75.1548 8.76024 4.27335 20.7841 -1.09152 -4.69168 177.883 3.28533 100.762 -50.4203 -21.2925 -1.28858 80.9995 -16.0359 -8.66049 9.43558 4.53614 10.2533 0.879339 8.04021 -89.4198 10.7872 2.01888 0.970235 -0.882629 2.05963 0.880406 -23.423 1.63397 1.5322 -3.41033 1.63397 1.5322 94.5311 -21.0116 -100.266 42.9211 -14.3843 12.1511 -41.0818 17.7327 -98.5385 -1.72519 -0.021077 -5.07214 -83.6777 -49.7956 88.2221 -19.4182 8.00353 26.6784 36.8791 -29.5165 -118.326 -6.16831 0.053078 -8.61185 10.6547 3.01355 3.06404 -7.74614 2.51689 -7.1655 
21.4399 92.5505 -36.4434 -112.194 -64.7152 -122.807 179.897 21.0841 93.7541 -37.7844 17.4882 4.50178 72.3685 7.83384 0.126398 25.0803 -3.10839 3.63175 177.321 -1.91846 96.7723 -52.0741 -24.5705 -3.39714 78.2711 -13.4185 -8.59313 11.3743 2.89859 12.4415 2.3332 8.03249 -88.9302 10.7785 5.13949 1.65041 -0.883115 5.20713 1.42207 -23.4733 4.40576 3.12087 -3.46061 4.40576 3.12086 94.0638 -16.8284 -102.99 45.726 -10.8389 11.8211 -37.6595 23.7432 -110.85 -2.66512 -0.0358356 -4.67912 -82.6447 -46.5949 89.4848 -19.8514 12.9026 31.9539 33.921 -32.6862 -122.986 -4.62908 -0.00958023 -8.54295 11.6464 -1.08121 2.66262 -9.01477 -1.15536 -11.0087 
17.6466 91.9474 -26.9473 -102.007 -59.1975 -114.408 -178.731 18.9095 93.8034 -23.9415 26.3491 2.66484 64.9568 3.55453 -1.04748 30.467 -0.326774 2.5923 176.244 -1.75784 93.1641 -58.3331 -26.5111 -4.54387 72.7763 -8.73124 -7.60067 12.1537 2.66764 12.3282 3.61486 7.95117 -88.6699 10.9205 7.81198 1.90843 -0.727772 7.88836 1.56073 -23.4064 6.87612 4.17726 -3.39374 6.87612 4.17725 93.8047 -12.5429 -105.653 45.0192 -9.4561 13.1406 -33.0084 29.0634 -123.191 -2.75382 -0.0657758 -3.03725 -81.8323 -47.8365 90.8634 -12.4808 12.48 34.719 33.3641 -35.8978 -128.22 -4.87537 0.0551108 -11.0285 14.4942 -3.75981 2.93638 -10.8241 -3.62377 -12.5791 
14.0758 89.5782 -18.3785 -96.2783 -56.0121 -109.11 -179.7 20.2772 95.0869 -28.2229 29.7997 4.08295 66.4584 3.96341 -2.99386 29.3083 -4.35039 10.3639 174.349 3.15999 91.8047 -69.4744 -16.8335 -3.16896 69.1285 -4.90467 -5.02596 16.5653 2.47991 8.58443 3.92102 7.88126 -88.6815 11.0633 8.41636 1.81179 -0.58094 8.48789 1.43703 -23.2889 7.48112 4.26981 -3.27625 7.48113 4.2698 93.7773 -12.8442 -105.596 45.9918 -8.92628 16.2721 -24.423 26.1395 -130.198 -6.33412 -0.112679 -3.5169 -81.9276 -53.8738 91.1726 -4.41479 8.00414 29.4637 32.9168 -34.5004 -129.191 -5.4862 0.12745 -12.2146 20.0091 -3.64221 3.10896 -12.7676 -3.50389 -11.9793 
10.6382 86.6995 -11.8274 -96.8032 -55.371 -111.363 -178.544 20.5028 94.9344 -39.0951 26.9025 3.66394 72.4044 6.78582 -5.56447 46.2545 5.2815 6.95895 171.9 13.3751 91.5058 -87.3006 -5.73505 -2.89533 74.277 -8.10222 -5.38882 17.4674 2.39843 7.8262 3.03165 8.34887 -88.4084 10.1041 6.76562 2.60177 -1.55111 6.87358 2.30035 -24.1716 5.67063 4.51858 -4.15896 5.67065 4.51859 92.877 -17.49 -105.654 51.5599 -7.43724 17.9913 -31.5055 25.3368 -119.328 -4.26044 -0.0961435 -3.00981 -84.6375 -60.1393 87.9452 0.295614 3.6932 8.94806 35.2435 -31.3223 -123.935 -6.35193 0.0699477 -9.58707 28.6776 -2.33723 -0.557302 -12.3203 -1.14036 -10.7263 
6.70651 85.1855 -6.51847 -96.5404 -54.7618 -113.767 -176.851 17.3865 93.5612 -42.5021 25.6929 2.57904 79.2159 10.7872 -6.19943 46.7093 5.30052 7.44355 171.103 27.0113 90.0143 -100.384 -4.79971 -3.44969 77.8372 -11.1303 -6.85183 16.6586 2.19639 9.27223 1.66946 8.57563 -88.0054 9.64124 4.229 3.62445 -2.02736 4.38432 3.43481 -24.5524 2.94554 4.7266 -4.53976 2.94553 4.72659 93.2221 -20.0356 -103.71 56.8059 -9.55962 21.6227 -33.0882 22.9572 -111.516 -2.9589 -0.0723694 -2.96923 -88.8122 -59.4158 82.1796 5.15944 -1.95761 -21.6573 41.2762 -30.2649 -116.641 -9.45345 -0.0168414 -5.55311 31.9644 -2.25281 -5.66725 -11.5896 0.930993 -9.33968 
1.57941 84.5541 -1.41207 -93.4162 -51.9783 -108.337 -174.801 12.7716 97.4842 -42.6597 22.7136 3.14422 84.8858 13.6506 -8.3571 47.8062 5.53556 8.6847 168.565 39.8402 95.3113 -101.981 -2.89117 -2.80788 81.3061 -13.2297 -6.63726 17.2582 1.9749 9.25585 0.435374 8.1851 -88.3052 10.4693 1.64458 3.22222 -1.20444 1.78476 3.14681 -23.7093 0.600863 3.56706 -3.69664 0.600849 3.56707 94.4253 -16.5327 -102.184 62.6724 -19.3562 30.8701 -30.9313 28.5279 -114.672 -0.253842 -0.0319773 -6.47809 -86.8515 -49.8854 83.4314 4.64895 -13.0205 -43.084 39.5598 -26.1358 -115.761 -9.00221 0.00285703 -5.98192 28.2871 -2.84436 -8.72875 -12.5318 1.41041 -8.99619 
